<mxfile host="app.diagrams.net" modified="2023-12-02T20:36:56.474Z" agent="Mozilla/5.0 (Macintosh; Intel Mac OS X 10_15_7) AppleWebKit/537.36 (KHTML, like Gecko) Chrome/119.0.0.0 Safari/537.36" etag="P5XBw8HsNMbSqsylxQHv" version="22.1.5" type="device" pages="2">
  <diagram name="HexArch" id="yR3rzHstElu1B-JzLBq6">
    <mxGraphModel dx="1782" dy="634" grid="1" gridSize="10" guides="1" tooltips="1" connect="1" arrows="1" fold="1" page="1" pageScale="1" pageWidth="827" pageHeight="1169" math="0" shadow="0">
      <root>
        <mxCell id="0" />
        <mxCell id="1" parent="0" />
        <mxCell id="yMYMJlDVgsXbrorfaDNX-14" value="" style="verticalLabelPosition=bottom;verticalAlign=top;html=1;shape=hexagon;perimeter=hexagonPerimeter2;arcSize=6;size=0.27;gradientColor=none;fillColor=none;" parent="1" vertex="1">
          <mxGeometry x="148" y="140" width="475" height="398.12" as="geometry" />
        </mxCell>
        <mxCell id="yMYMJlDVgsXbrorfaDNX-15" value="" style="verticalLabelPosition=bottom;verticalAlign=top;html=1;shape=hexagon;perimeter=hexagonPerimeter2;arcSize=6;size=0.27;gradientColor=none;fillColor=none;" parent="1" vertex="1">
          <mxGeometry x="282.13" y="242.65" width="206.75" height="192.82" as="geometry" />
        </mxCell>
        <mxCell id="yMYMJlDVgsXbrorfaDNX-56" value="Hexagonal Architecture" style="text;html=1;strokeColor=none;fillColor=none;align=center;verticalAlign=middle;whiteSpace=wrap;rounded=0;container=0;" parent="1" vertex="1">
          <mxGeometry x="320.51" y="570" width="130" height="40" as="geometry" />
        </mxCell>
        <mxCell id="Js9lYTt0yop0PSoJQgpP-22" style="rounded=0;orthogonalLoop=1;jettySize=auto;html=1;exitX=0.5;exitY=0;exitDx=0;exitDy=0;entryX=0.5;entryY=1;entryDx=0;entryDy=0;startArrow=none;startFill=0;endArrow=none;endFill=0;" edge="1" parent="1" source="yMYMJlDVgsXbrorfaDNX-16" target="yMYMJlDVgsXbrorfaDNX-22">
          <mxGeometry relative="1" as="geometry" />
        </mxCell>
        <mxCell id="yMYMJlDVgsXbrorfaDNX-16" value="" style="shape=trapezoid;perimeter=trapezoidPerimeter;whiteSpace=wrap;html=1;fixedSize=1;direction=south;rotation=30;fillColor=none;" parent="1" vertex="1">
          <mxGeometry x="227.94" y="167.78" width="42.06" height="182.22" as="geometry" />
        </mxCell>
        <mxCell id="Js9lYTt0yop0PSoJQgpP-25" style="rounded=0;orthogonalLoop=1;jettySize=auto;html=1;exitX=0.5;exitY=0;exitDx=0;exitDy=0;entryX=0.5;entryY=1;entryDx=0;entryDy=0;startArrow=none;startFill=0;endArrow=none;endFill=0;" edge="1" parent="1" source="yMYMJlDVgsXbrorfaDNX-17" target="yMYMJlDVgsXbrorfaDNX-33">
          <mxGeometry relative="1" as="geometry" />
        </mxCell>
        <mxCell id="yMYMJlDVgsXbrorfaDNX-17" value="" style="shape=trapezoid;perimeter=trapezoidPerimeter;whiteSpace=wrap;html=1;fixedSize=1;direction=east;rotation=60;fillColor=none;" parent="1" vertex="1">
          <mxGeometry x="170.55" y="412.5" width="165.5" height="36.24" as="geometry" />
        </mxCell>
        <mxCell id="Js9lYTt0yop0PSoJQgpP-24" style="rounded=0;orthogonalLoop=1;jettySize=auto;html=1;exitX=0.5;exitY=0;exitDx=0;exitDy=0;entryX=0.5;entryY=1;entryDx=0;entryDy=0;startArrow=none;startFill=0;endArrow=none;endFill=0;" edge="1" parent="1" source="yMYMJlDVgsXbrorfaDNX-18" target="yMYMJlDVgsXbrorfaDNX-31">
          <mxGeometry relative="1" as="geometry" />
        </mxCell>
        <mxCell id="yMYMJlDVgsXbrorfaDNX-18" value="" style="shape=trapezoid;perimeter=trapezoidPerimeter;whiteSpace=wrap;html=1;fixedSize=1;direction=south;rotation=-147;fillColor=none;" parent="1" vertex="1">
          <mxGeometry x="511.25" y="328.13" width="40" height="174.82" as="geometry" />
        </mxCell>
        <mxCell id="Js9lYTt0yop0PSoJQgpP-23" style="rounded=0;orthogonalLoop=1;jettySize=auto;html=1;exitX=0.5;exitY=0;exitDx=0;exitDy=0;entryX=0.5;entryY=1;entryDx=0;entryDy=0;startArrow=none;startFill=0;endArrow=none;endFill=0;" edge="1" parent="1" source="yMYMJlDVgsXbrorfaDNX-19" target="yMYMJlDVgsXbrorfaDNX-32">
          <mxGeometry relative="1" as="geometry" />
        </mxCell>
        <mxCell id="yMYMJlDVgsXbrorfaDNX-19" value="" style="shape=trapezoid;perimeter=trapezoidPerimeter;whiteSpace=wrap;html=1;fixedSize=1;direction=south;rotation=150;fillColor=none;" parent="1" vertex="1">
          <mxGeometry x="503.67" y="163.13" width="40" height="165" as="geometry" />
        </mxCell>
        <mxCell id="yMYMJlDVgsXbrorfaDNX-21" value="&lt;font style=&quot;font-size: 12px;&quot;&gt;Application&lt;/font&gt;" style="text;html=1;strokeColor=none;fillColor=none;align=center;verticalAlign=middle;whiteSpace=wrap;rounded=0;fontSize=6;" parent="1" vertex="1">
          <mxGeometry x="365.5" y="328.13" width="40" height="10" as="geometry" />
        </mxCell>
        <mxCell id="yMYMJlDVgsXbrorfaDNX-22" value="&lt;font style=&quot;font-size: 8px;&quot;&gt;Port&lt;/font&gt;" style="rounded=1;whiteSpace=wrap;html=1;rotation=120;fontSize=6;fillColor=none;" parent="1" vertex="1">
          <mxGeometry x="304.29" y="278.39" width="68.53" height="31.06" as="geometry" />
        </mxCell>
        <mxCell id="yMYMJlDVgsXbrorfaDNX-31" value="&lt;font style=&quot;font-size: 8px;&quot;&gt;Port&lt;/font&gt;" style="rounded=1;whiteSpace=wrap;html=1;rotation=-60;fontSize=6;fillColor=none;" parent="1" vertex="1">
          <mxGeometry x="409.04" y="358.05" width="63.92" height="29.56" as="geometry" />
        </mxCell>
        <mxCell id="yMYMJlDVgsXbrorfaDNX-32" value="&lt;font style=&quot;font-size: 8px;&quot;&gt;Port&lt;/font&gt;" style="rounded=1;whiteSpace=wrap;html=1;rotation=-120;fontSize=6;fillColor=none;" parent="1" vertex="1">
          <mxGeometry x="396.81" y="276.66" width="65.46" height="28.87" as="geometry" />
        </mxCell>
        <mxCell id="yMYMJlDVgsXbrorfaDNX-33" value="&lt;font style=&quot;font-size: 8px;&quot;&gt;Port&lt;/font&gt;" style="rounded=1;whiteSpace=wrap;html=1;rotation=60;fontSize=6;fillColor=none;" parent="1" vertex="1">
          <mxGeometry x="312.21" y="367.89" width="57.11" height="28.4" as="geometry" />
        </mxCell>
        <mxCell id="yMYMJlDVgsXbrorfaDNX-40" style="rounded=0;orthogonalLoop=1;jettySize=auto;html=1;entryX=0.5;entryY=1;entryDx=0;entryDy=0;strokeWidth=1;endSize=1;startArrow=classic;startFill=1;startSize=1;" parent="1" source="yMYMJlDVgsXbrorfaDNX-35" target="yMYMJlDVgsXbrorfaDNX-16" edge="1">
          <mxGeometry relative="1" as="geometry" />
        </mxCell>
        <mxCell id="yMYMJlDVgsXbrorfaDNX-35" value="&lt;font style=&quot;font-size: 10px;&quot;&gt;user interface&lt;/font&gt;" style="sketch=0;outlineConnect=0;fontColor=#232F3E;gradientColor=none;fillColor=#232F3D;strokeColor=none;dashed=0;verticalLabelPosition=bottom;verticalAlign=top;align=center;html=1;fontSize=12;fontStyle=0;aspect=fixed;pointerEvents=1;shape=mxgraph.aws4.user;" parent="1" vertex="1">
          <mxGeometry x="30.009999999999998" y="121.91" width="45.87" height="45.87" as="geometry" />
        </mxCell>
        <mxCell id="yMYMJlDVgsXbrorfaDNX-45" style="rounded=0;orthogonalLoop=1;jettySize=auto;html=1;entryX=0.5;entryY=1;entryDx=0;entryDy=0;strokeWidth=1;endSize=1;startArrow=classic;startFill=1;startSize=1;" parent="1" source="yMYMJlDVgsXbrorfaDNX-36" target="yMYMJlDVgsXbrorfaDNX-17" edge="1">
          <mxGeometry relative="1" as="geometry" />
        </mxCell>
        <mxCell id="yMYMJlDVgsXbrorfaDNX-36" value="&lt;font style=&quot;font-size: 10px;&quot;&gt;external application&lt;/font&gt;" style="verticalLabelPosition=bottom;aspect=fixed;html=1;shape=mxgraph.salesforce.apps2;" parent="1" vertex="1">
          <mxGeometry x="30" y="490" width="58" height="58" as="geometry" />
        </mxCell>
        <mxCell id="yMYMJlDVgsXbrorfaDNX-37" value="&lt;font style=&quot;font-size: 10px;&quot;&gt;Database&lt;/font&gt;" style="strokeWidth=2;html=1;shape=mxgraph.flowchart.database;whiteSpace=wrap;fillColor=none;" parent="1" vertex="1">
          <mxGeometry x="700" y="113.86" width="60" height="81.97" as="geometry" />
        </mxCell>
        <mxCell id="yMYMJlDVgsXbrorfaDNX-38" value="&lt;font style=&quot;font-size: 10px;&quot;&gt;3RD party API&lt;/font&gt;" style="sketch=0;html=1;dashed=0;whitespace=wrap;fillColor=#2875E2;strokeColor=#ffffff;points=[[0.005,0.63,0],[0.1,0.2,0],[0.9,0.2,0],[0.5,0,0],[0.995,0.63,0],[0.72,0.99,0],[0.5,1,0],[0.28,0.99,0]];verticalLabelPosition=bottom;align=center;verticalAlign=top;shape=mxgraph.kubernetes.icon;prIcon=api" parent="1" vertex="1">
          <mxGeometry x="705" y="460" width="50" height="98.12" as="geometry" />
        </mxCell>
        <mxCell id="yMYMJlDVgsXbrorfaDNX-44" style="rounded=0;orthogonalLoop=1;jettySize=auto;html=1;exitX=0.5;exitY=1;exitDx=0;exitDy=0;entryX=0;entryY=0.5;entryDx=0;entryDy=0;entryPerimeter=0;endSize=1;startArrow=classic;startFill=1;startSize=1;" parent="1" source="yMYMJlDVgsXbrorfaDNX-19" target="yMYMJlDVgsXbrorfaDNX-37" edge="1">
          <mxGeometry relative="1" as="geometry" />
        </mxCell>
        <mxCell id="yMYMJlDVgsXbrorfaDNX-48" style="rounded=0;orthogonalLoop=1;jettySize=auto;html=1;exitX=0.5;exitY=1;exitDx=0;exitDy=0;entryX=0.005;entryY=0.63;entryDx=0;entryDy=0;entryPerimeter=0;endSize=1;startArrow=classic;startFill=1;startSize=1;" parent="1" source="yMYMJlDVgsXbrorfaDNX-18" target="yMYMJlDVgsXbrorfaDNX-38" edge="1">
          <mxGeometry relative="1" as="geometry" />
        </mxCell>
        <mxCell id="yMYMJlDVgsXbrorfaDNX-50" value="&lt;font style=&quot;font-size: 10px;&quot;&gt;Adaptor&lt;/font&gt;" style="text;html=1;strokeColor=none;fillColor=none;align=center;verticalAlign=middle;whiteSpace=wrap;rounded=0;fontSize=7;rotation=59;" parent="1" vertex="1">
          <mxGeometry x="240" y="427.5" width="30" height="6.24" as="geometry" />
        </mxCell>
        <mxCell id="yMYMJlDVgsXbrorfaDNX-51" value="&lt;font style=&quot;font-size: 10px;&quot;&gt;Adaptor&lt;/font&gt;" style="text;html=1;strokeColor=none;fillColor=none;align=center;verticalAlign=middle;whiteSpace=wrap;rounded=0;fontSize=7;rotation=-240;" parent="1" vertex="1">
          <mxGeometry x="227.94" y="257" width="30" height="10" as="geometry" />
        </mxCell>
        <mxCell id="yMYMJlDVgsXbrorfaDNX-52" value="&lt;font style=&quot;font-size: 10px;&quot;&gt;Adaptor&lt;/font&gt;" style="text;html=1;strokeColor=none;fillColor=none;align=center;verticalAlign=middle;whiteSpace=wrap;rounded=0;fontSize=7;rotation=240;" parent="1" vertex="1">
          <mxGeometry x="508.67" y="236.25" width="30" height="10" as="geometry" />
        </mxCell>
        <mxCell id="yMYMJlDVgsXbrorfaDNX-53" value="Adaptor" style="text;html=1;strokeColor=none;fillColor=none;align=center;verticalAlign=middle;whiteSpace=wrap;rounded=0;fontSize=10;rotation=-55;" parent="1" vertex="1">
          <mxGeometry x="520" y="408.56" width="22.5" height="10" as="geometry" />
        </mxCell>
        <mxCell id="Js9lYTt0yop0PSoJQgpP-26" value="" style="endArrow=none;dashed=1;html=1;rounded=0;edgeStyle=orthogonalEdgeStyle;" edge="1" parent="1">
          <mxGeometry width="50" height="50" relative="1" as="geometry">
            <mxPoint x="386" y="580" as="sourcePoint" />
            <mxPoint x="385.5" y="60" as="targetPoint" />
          </mxGeometry>
        </mxCell>
        <mxCell id="Js9lYTt0yop0PSoJQgpP-27" value="Driving agents" style="rounded=1;whiteSpace=wrap;html=1;fillColor=none;" vertex="1" parent="1">
          <mxGeometry x="-7.059999999999999" y="303.13" width="120" height="60" as="geometry" />
        </mxCell>
        <mxCell id="Js9lYTt0yop0PSoJQgpP-28" value="Driven&amp;nbsp;agents" style="rounded=1;whiteSpace=wrap;html=1;fillColor=none;" vertex="1" parent="1">
          <mxGeometry x="670" y="309.06" width="120" height="60" as="geometry" />
        </mxCell>
      </root>
    </mxGraphModel>
  </diagram>
  <diagram id="Kuq11vRXgzRZAYzWs-6S" name="Page-2">
    <mxGraphModel dx="1194" dy="792" grid="1" gridSize="10" guides="1" tooltips="1" connect="1" arrows="1" fold="1" page="1" pageScale="1" pageWidth="827" pageHeight="1169" math="0" shadow="0">
      <root>
        <mxCell id="0" />
        <mxCell id="1" parent="0" />
        <mxCell id="ffQ12pxejHnHUTVX2B1H-1" value="Core/Domain" style="shape=hexagon;perimeter=hexagonPerimeter;fillColor=#FFC300;gradientColor=none;fontColor=#000000;" vertex="1" connectable="0" parent="1">
          <mxGeometry x="230" y="180" width="120" height="100" as="geometry" />
        </mxCell>
        <mxCell id="ffQ12pxejHnHUTVX2B1H-2" value="Adapters" style="shape=hexagon;perimeter=hexagonPerimeter;fillColor=#FF5733;gradientColor=none;fontColor=#000000;" vertex="1" connectable="0" parent="1">
          <mxGeometry x="470" y="180" width="120" height="100" as="geometry" />
        </mxCell>
        <mxCell id="ffQ12pxejHnHUTVX2B1H-3" value="Use Cases" style="shape=hexagon;perimeter=hexagonPerimeter;fillColor=#C70039;gradientColor=none;fontColor=#FFFFFF;" vertex="1" connectable="0" parent="1">
          <mxGeometry x="350" y="60" width="120" height="100" as="geometry" />
        </mxCell>
        <mxCell id="ffQ12pxejHnHUTVX2B1H-4" style="edgeStyle=orthogonalEdgeStyle;rounded=0;orthogonalLoop=1;jettySize=auto;html=1;" parent="1" source="ffQ12pxejHnHUTVX2B1H-1" target="ffQ12pxejHnHUTVX2B1H-2">
          <mxGeometry relative="1" as="geometry" />
        </mxCell>
        <mxCell id="ffQ12pxejHnHUTVX2B1H-5" style="edgeStyle=orthogonalEdgeStyle;rounded=0;orthogonalLoop=1;jettySize=auto;html=1;" parent="1" source="ffQ12pxejHnHUTVX2B1H-3" target="ffQ12pxejHnHUTVX2B1H-1">
          <mxGeometry relative="1" as="geometry" />
        </mxCell>
        <mxCell id="ffQ12pxejHnHUTVX2B1H-6" value="Core/Domain" style="shape=hexagon;perimeter=hexagonPerimeter;fillColor=#FFC300;gradientColor=none;fontColor=#000000;" vertex="1" connectable="0" parent="1">
          <mxGeometry x="230" y="180" width="120" height="100" as="geometry" />
        </mxCell>
        <mxCell id="ffQ12pxejHnHUTVX2B1H-7" value="Adapters" style="shape=hexagon;perimeter=hexagonPerimeter;fillColor=#FF5733;gradientColor=none;fontColor=#000000;" vertex="1" connectable="0" parent="1">
          <mxGeometry x="470" y="180" width="120" height="100" as="geometry" />
        </mxCell>
        <mxCell id="ffQ12pxejHnHUTVX2B1H-8" value="" style="shape=ellipse;perimeter=ellipsePerimeter;fillColor=#FFFFFF;strokeColor=#000000;fontColor=#000000;" vertex="1" connectable="0" parent="ffQ12pxejHnHUTVX2B1H-7">
          <mxGeometry x="496" y="140" width="12" height="12" as="geometry" />
        </mxCell>
        <mxCell id="ffQ12pxejHnHUTVX2B1H-9" value="" style="shape=ellipse;perimeter=ellipsePerimeter;fillColor=#FFFFFF;strokeColor=#000000;fontColor=#000000;" vertex="1" connectable="0" parent="ffQ12pxejHnHUTVX2B1H-7">
          <mxGeometry x="496" y="180" width="12" height="12" as="geometry" />
        </mxCell>
        <mxCell id="ffQ12pxejHnHUTVX2B1H-10" value="Use Cases" style="shape=hexagon;perimeter=hexagonPerimeter;fillColor=#C70039;gradientColor=none;fontColor=#FFFFFF;" vertex="1" connectable="0" parent="1">
          <mxGeometry x="350" y="60" width="120" height="100" as="geometry" />
        </mxCell>
        <mxCell id="ffQ12pxejHnHUTVX2B1H-11" style="edgeStyle=orthogonalEdgeStyle;rounded=0;orthogonalLoop=1;jettySize=auto;html=1;" parent="1" source="ffQ12pxejHnHUTVX2B1H-8" target="ffQ12pxejHnHUTVX2B1H-10">
          <mxGeometry relative="1" as="geometry" />
        </mxCell>
        <mxCell id="ffQ12pxejHnHUTVX2B1H-12" style="edgeStyle=orthogonalEdgeStyle;rounded=0;orthogonalLoop=1;jettySize=auto;html=1;" parent="1" source="ffQ12pxejHnHUTVX2B1H-9" target="ffQ12pxejHnHUTVX2B1H-10">
          <mxGeometry relative="1" as="geometry" />
        </mxCell>
      </root>
    </mxGraphModel>
  </diagram>
</mxfile>
